<?xml version="1.0" encoding="utf-8"?>
<svg id="logo" viewBox="0 0 800 800" xmlns="http://www.w3.org/2000/svg">
    <path
        d="M398.533 32.5333C398.267 32.8 389.333 33.7333 378.667 34.6667C350.667 36.9333 322.667 40.6667 306 44.5333C284.133 49.3333 258.667 59.3334 243.467 68.9333C240 71.2 238 71.7333 237.333 70.8C236.8 69.7333 235.733 70.1334 234 72C231.733 74.5333 231.733 74.6666 234.133 75.6C236.133 76.4 235.733 76.9333 231.333 78.8C228.4 80.1333 225.867 80.6667 225.6 80C225.333 79.3333 222.4 80.2667 218.933 82C215.467 83.6 209.333 85.7333 205.333 86.6667C196.667 88.6667 190.667 91.4667 188.4 94.8C187.467 96 183.6 99.3334 179.867 102.133C176.133 104.8 172.667 108.4 172 110C171.333 111.867 169.333 113.333 166.8 113.733C162.8 114.533 162.667 114.8 163.467 120.533C164.267 126.133 164.133 126.533 160 128.667L155.6 130.933L156.533 127.333C157.467 124 157.333 123.867 154.667 125.733C147.067 131.067 130.933 146.8 121.467 158.133C108.133 174.133 97.3333 190.133 88.2666 207.333C84.4 214.667 81.6 218.933 82 216.8C83.4666 210.267 79.2 215.067 76.5333 223.067C72 236.667 70.6666 239.067 68.6666 237.333C67.0666 236 66.5333 236.267 65.4666 238.8C52.4 273.6 49.3333 284.667 51.7333 288.667C52.6666 290.533 52.1333 292.533 49.0666 297.2C46.9333 300.533 44.4 306.267 43.3333 310C38.8 326.133 36.9333 363.067 40.5333 365.867C42 366.933 42.6666 371.2 42.9333 381.6C43.4666 398.4 41.4666 399.067 37.8666 383.2C36.6666 377.733 35.0666 372.933 34.2666 372.4C33.3333 371.867 33.2 372.667 33.8666 374.8C34.4 376.533 35.3333 391.733 36 408.667C37.3333 444 38.9333 452.4 45.6 461.2C47.3333 463.467 48 466.667 48 473.467C48 482.267 49.7333 486.267 52.1333 482.533C52.9333 481.2 53.6 481.733 54.5333 484.4C56.6666 489.733 56.4 490.933 52.8 494L49.6 496.667L58.8 513.333C68.9333 531.333 75.8666 540.667 80.1333 542C82.2666 542.667 82.6666 543.867 82.4 547.067C82.1333 549.6 81.3333 551.2 80.4 551.067C77.7333 550.533 78.2666 551.733 84.9333 561.2C88.2666 566 92.8 573.333 94.8 577.467C96.9333 581.6 100.667 587.733 103.333 591.2C109.067 598.667 106.133 599.733 100.133 592.4C96.6666 588.267 96 587.867 96 590.133C96 595.333 106 609.467 120.667 624.933C128.8 633.333 136.533 642 138 644.133C140 646.933 142.4 648.267 147.6 649.333C154.533 650.8 160 655.333 160 659.467C160 661.733 159.867 661.733 155.467 660C153.6 659.333 152 659.067 152 659.467C152 662.267 168.667 676.8 181.733 685.6C190.533 691.333 198.533 697.067 199.733 698.533C201.067 699.867 206.533 703.733 212.133 707.2C220.267 712.133 223.6 713.333 228.4 713.333C232 713.333 234.933 712.533 236 711.333C237.333 709.733 238.533 710 245.067 712.933C249.2 714.8 256.267 717.733 260.667 719.467C267.333 722 268 722.533 264.667 722.667C262.533 722.667 256.4 721.067 251.067 719.2C245.333 717.067 240.4 716 239.067 716.667C237.067 717.467 237.733 718.533 243.867 724C248 727.6 250.667 730.933 250.133 731.867C249.467 732.8 250 733.067 251.333 732.533C254.267 731.333 278.667 737.467 278.667 739.333C278.667 742.667 288.533 745.467 303.6 746.533C312.133 747.2 319.467 748.4 319.867 749.2C320.533 750.267 323.067 749.867 328.4 748C332.533 746.533 338.133 745.333 340.933 745.2C345.067 745.067 345.467 744.933 342.8 744.133C340.267 743.467 341.333 742.933 348.133 741.6C363.467 738.533 365.733 737.467 364.933 733.733C364.4 730.533 364.533 730.4 369.867 731.2C372.8 731.6 379.067 732.267 383.6 732.8C392.933 733.733 393.067 734.533 385.733 741.867C380 747.733 372.533 750.533 362.667 750.667C357.6 750.8 355.067 751.2 356.4 751.867C357.733 752.4 358.8 753.333 358.8 754C358.533 758.4 379.067 757.6 388.267 752.933C393.067 750.533 394 749.333 394 746.133C394 742.933 394.933 741.733 399.333 739.467C403.867 737.2 408.133 736.667 427.333 735.867C448.133 734.933 459.6 733.6 465.733 731.333C470.267 729.467 467.867 731.867 459.733 737.067C450.533 742.8 442.267 744.933 439.733 742.133C438.533 740.8 436.8 740.8 432.667 741.733C425.067 743.6 423.6 745.067 424.4 750.267C425.333 755.6 423.333 756.4 411.333 755.733L403.333 755.333L408.4 753.067C414.8 750.133 414.667 748 408 748C404 748 400.8 749.333 393.733 754.267C380.533 763.333 380.4 763.067 395.333 762.267C428.933 760.267 533.867 732.933 562.933 718.667C617.733 691.6 675.867 638 708 584.667C721.733 562 736.133 530.4 744.4 504.667C753.467 476.667 759.2 438.267 756.133 424.8C754.267 416.4 746.933 405.067 745.333 408.133C743.867 410.667 740.933 425.2 741.067 429.333C741.6 445.467 741.2 455.2 740 457.067C738.933 458.8 738.8 457.867 739.467 453.6C740 449.333 739.867 448 738.533 448.267C737.467 448.533 736.533 446.933 736 444L735.333 439.333L731.733 447.333C724.8 462.667 718.8 493.067 720.4 503.467C721.067 507.467 718.933 511.733 717.067 510C716.667 509.6 716.667 503.733 716.933 496.933L717.467 484.667L709.6 502.133C691.067 543.2 671.867 574.533 647.733 603.067C644.267 607.2 643.733 608.533 644.933 610.4C645.867 612.133 645.867 614.533 644.933 618.933C643.733 624 642.8 625.333 640.267 625.6L637.067 626L640.267 629.467L643.467 632.8L640.4 635.067C635.067 639.2 630.533 646.267 624.667 660C618 675.333 613.867 681.6 612.533 678.267C612 676.667 608.4 678.8 596.933 687.733C588.667 694 580.4 700 578.267 701.067C571.6 704.4 571.467 702 578.133 697.067C587.2 690.4 591.2 685.867 590.133 683.333C589.467 681.6 588.8 681.467 586.533 682.8C583.733 684.267 583.733 684.133 584.667 679.2C585.067 676.4 586.8 671.733 588.267 668.667L591.067 663.333L585.6 668.267C578 675.2 570.533 679.6 557.067 685.467C550.667 688.267 543.067 692.133 540.133 694C537.2 695.867 534.4 697.333 534 697.333C532 697.333 535.6 694.133 547.333 685.333C560 675.867 563.867 672.133 555.733 677.067C547.867 681.867 538.267 686.667 536.533 686.667C535.6 686.667 534.533 685.6 534.133 684.267C533.733 683.067 533.733 684.4 534.133 687.2C534.667 690.667 534.267 692.8 533.067 693.467C529.867 695.6 529.067 694.667 529.867 690C530.533 686.4 530.4 685.333 528.8 685.333C525.2 685.333 520.267 687.733 515.333 692.133C510.533 696.4 510.4 696.667 511.2 703.867C512 712.133 511.333 713.6 504.267 718.533C500.4 721.2 499.333 721.467 496.667 720C494 718.533 492.4 718.8 484.667 722.533C474.933 727.067 473.333 727.467 475.733 725.067C477.867 722.933 477.733 719.333 475.467 717.467C474.133 716.267 473.467 716.4 472.933 717.867C472.533 718.933 470.267 720.8 468.133 722C464.8 723.6 462.533 723.733 454.4 722.667C449.067 721.867 442 721.6 438.667 722.133L432.667 722.933L438.267 718.933C444.533 714.267 447.067 711.067 443.333 712.533C442 712.933 435.467 714.933 428.933 716.8C416.933 720.133 409.333 723.333 407.867 725.467C406.667 727.467 397.733 727.467 376.267 725.333C362.933 724.133 356.8 723.067 358.533 722.4C360.133 721.867 361.867 720 362.667 718.133C363.333 716.4 364.933 714.267 366.267 713.467C369.733 711.467 366.4 711.6 357.467 713.867C345.467 717.067 322.267 719.733 301.067 720.667L281.333 721.467V717.067C281.333 714.533 282.267 711.2 283.467 709.467C285.6 706.4 285.6 706.133 282.533 703.867C278.533 700.8 272.133 699.467 266.8 700.667C264.133 701.2 260.8 700.667 256.533 698.8C248.8 695.333 247.467 695.2 252.533 698.533L256.267 701.067L251.867 702C249.333 702.533 244.667 704.4 241.333 706.133C233.333 710.4 228.4 710.133 220.933 705.2C217.467 702.933 214.4 700.533 214 700C212.533 697.6 215.867 697.6 220.4 700C225.467 702.667 230.667 703.467 230.667 701.6C230.667 700.933 228.4 699.467 225.467 698.267C220.4 696 214.4 690.667 216.933 690.667C217.733 690.667 220.933 691.867 224.133 693.333C230.267 696.133 236 696.8 236 694.8C236 694.267 233.333 692.933 230.133 692C223.6 690.267 221.733 687.733 224.8 685.333C227.733 682.8 227.067 680 223.333 680C217.2 680 211.333 676.533 204.133 668.533C195.733 659.2 182.133 640.133 183.067 639.2C183.467 638.8 185.6 639.467 187.867 640.533C193.2 643.333 196.267 643.333 195.733 640.267C195.333 638.4 193.867 638 188 638C181.2 638 180.533 637.733 178.933 634.133C175.333 625.733 165.067 613.2 158.133 608.8C154.267 606.4 146.533 599.067 141.067 592.533C135.467 586 129.333 579.2 127.333 577.333C124.133 574.4 124.267 574.933 128.533 580.8C133.867 588.4 134.267 590 131.2 591.2C128.133 592.4 126.667 590.933 126.667 586.8C126.667 582.667 123.6 579.2 121.333 580.667C120.4 581.2 120.133 583.067 120.533 585.2C121.333 588.533 121.333 588.533 119.333 586.133C118.267 584.667 117.333 584.133 117.333 584.8C117.333 585.6 119.333 588.533 121.733 591.467C124.133 594.267 128.933 600.667 132.4 605.6C140.133 616.533 152.4 627.6 158.933 629.6C164 631.067 166 634.667 161.867 634.667C160.133 634.667 160.4 635.467 163.2 638C165.067 639.733 166.667 642 166.667 643.067C166.667 644.133 167.6 645.733 168.667 646.667C169.867 647.6 170.533 648.667 170.133 648.933C168.933 650.133 161.2 645.067 150.533 636C144.4 630.933 138.933 626.667 138.4 626.667C137.867 626.667 137.333 626 137.333 625.2C137.333 622.4 128 609.733 117.067 598C106.4 586.533 100 578.533 100 576.8C100 576.4 103.333 576.4 107.333 576.8C114.4 577.6 114.667 577.6 114.667 574.667C114.667 567.867 109.467 560.267 101.2 555.333C92.2666 549.867 90.5333 546.133 94 540.8C95.6 538.267 96.1333 535.867 95.6 532.4L94.8 527.6L98.6666 531.333L102.667 535.2V530.4C102.667 526.4 101.733 524.8 97.3333 521.333C92.9333 517.867 92 516.267 91.8666 512.267C91.7333 508 91.4666 508.4 90.5333 514.667C89.7333 519.2 89.7333 523.333 90.5333 525.6C91.3333 527.6 91.3333 529.333 90.6666 529.333C89.3333 529.333 84 522.133 84 520.267C84 519.467 83.3333 518.4 82.5333 517.867C81.4666 517.333 81.3333 518 82 520C82.8 522.533 82.5333 522.667 80.4 521.6C75.2 518.8 69.7333 509.333 73.4666 509.333C74.5333 509.333 74.8 507.6 74 502.933C73.4666 499.467 72.9333 494.8 72.6666 492.667C72.2666 488.4 66.9333 469.6 65.6 467.2C65.0666 466.4 62.6666 463.2 60.4 460C58 456.8 56 453.067 56 451.6C56 448.933 56.1333 448.933 59.3333 452C62 454.533 62.9333 454.8 64.5333 453.467C66.2666 452 66.8 452.933 68.5333 458.933C69.6 462.8 70.8 467.2 71.0666 468.667C71.6 471.467 71.8666 471.067 73.8666 464.8C74.5333 462.8 75.0666 462.667 76.6666 464C77.7333 464.933 78.6666 466.667 78.6666 467.733C78.6666 469.333 79.0666 469.467 80.1333 468.4C81.3333 467.2 80.9333 465.067 78.8 459.867C76.8 455.467 76.1333 451.733 76.6666 449.467C77.4666 446.267 77.3333 446.133 75.6 448.533C73.8666 450.8 73.7333 450.533 72.9333 444.267C72.1333 437.2 68.2666 428.4 64.8 425.467C62.1333 423.2 62.1333 424.133 64.6666 430.267C65.7333 432.933 66.5333 435.333 66.2666 435.467C66 435.733 63.7333 433.867 61.3333 431.333C57.4666 427.333 56.8 425.867 57.2 420.933C57.3333 417.733 56.5333 410 55.3333 403.733C54.1333 397.333 53.6 390.667 54.1333 388.533C54.6666 386.267 54.5333 385.2 53.7333 385.733C52.4 386.533 50.5333 347.6 50.8 322.8V311.333L53.3333 317.333C54.6666 320.667 55.8666 325.467 56 328L56.1333 332.667L58 328.267C60 323.6 61.3333 323.2 65.6 325.467C68 326.8 68.9333 326.533 70.9333 324C72.2666 322.267 73.3333 318.933 73.3333 316C73.3333 311.6 72.6666 310.533 68.5333 308.133C66 306.533 63.6 305.333 63.2 305.333C62.9333 305.333 62.5333 307.333 62.5333 309.6C62.4 313.2 62.1333 313.333 61.7333 310.8C60.8 305.867 65.0666 290.133 70.9333 276.667C73.8666 270.133 77.4666 261.467 78.9333 257.733C80.4 253.867 83.3333 248.933 85.4666 246.8C88.8 243.467 89.3333 241.867 89.3333 235.6C89.3333 229.733 90 227.333 93.2 223.067C95.3333 220.133 98.8 216.4 100.8 214.8C104.4 212 104.667 211.867 106.4 214.267C108.133 216.533 108.267 216.533 110 214.133C112.133 211.2 111.333 208.8 108.533 209.867C107.467 210.267 106.667 209.733 106.667 208.667C106.667 207.6 107.2 206.667 107.867 206.667C108.4 206.667 109.333 202.8 109.867 198C110.667 190 111.2 188.8 116.133 184.267C124.133 177.067 131.733 172.133 137.467 170.667C144.133 168.8 150.133 159.6 148.8 152.933C146.4 139.867 146.4 139.467 149.333 135.6C150.933 133.6 153.067 132 154 132C155.6 132 155.6 132.8 153.867 136.667C152.8 139.2 152.4 141.333 153.067 141.333C153.6 141.333 156.8 138.667 160 135.333C163.2 132.133 166.133 129.733 166.4 130C166.8 130.4 164.8 134.267 162.133 138.667C157.6 146.133 156.667 150.667 159.733 150.667C160.4 150.667 161.867 148.667 162.8 146.267C163.733 144 169.6 136.667 175.6 130.133C181.733 123.733 186.667 117.6 186.667 116.667C186.667 113.467 193.2 106.933 202.8 100.667C216.267 91.7333 217.867 92 208 101.333L199.333 109.6L206 105.867C217.467 99.6 232 89.0667 241.867 80C251.467 71.0667 257.067 68 264.4 68C267.733 68 268.133 68.2667 266.667 70C264.133 72.9333 266.933 72.5333 274.4 68.8C278.8 66.5333 281.467 64.1333 282.933 60.8C284.533 57.6 286.933 55.3333 290.133 54C296.533 51.3333 297.333 51.4667 297.333 54.8C297.333 57.6 297.733 57.7333 306.4 56.9333C311.333 56.4 322.267 53.7333 330.933 50.8C350.133 44.2667 360 42.2667 369.867 42.8C376.8 43.3333 377.333 43.2 377.333 40.2667C377.333 36.9333 377.867 36.8 386.4 38.8C392.933 40.4 396.8 42.6667 393.067 42.6667C391.867 42.6667 389.2 43.3334 387.067 44.1334L383.333 45.7333L386.667 46.6667C388.8 47.2 392.4 46.6666 396.667 45.0667C400.533 43.6 404.8 42.8 406.933 43.2C412.267 44.2667 411.6 42.2667 405.067 37.8667L399.467 34L406.133 33.2L412.667 32.4L405.867 32.2667C402.133 32.1333 398.8 32.2667 398.533 32.5333Z"
    />
    <path
        d="M432.267 38.1333C431.467 39.0666 426.267 41.2 421.067 42.8C409.867 46 409.333 46.4 412 48C414.933 49.8666 420.267 49.4666 423.2 47.3333C426.267 45.0666 426.667 44.9333 429.333 46.6666C430.933 47.7333 430.667 48.5333 427.333 52.1333C423.333 56.2666 423.333 56.2666 426.667 55.3333C428.533 54.8 432.533 52.9333 435.6 51.2C441.867 47.6 447.6 48 448.267 52C448.667 54.4 448.933 54.4 456 51.6C468.533 46.8 482.533 48.5333 480.933 54.8C480.133 57.7333 489.067 59.8666 490.8 57.0666C491.733 55.7333 493.6 56 500.267 58.5333C504.933 60.2666 511.467 62.4 515.067 63.4666C524.667 66.1333 535.333 74.5333 534 78.2666C533.2 80.6666 534.4 80.4 536.933 77.8666C538.667 76.1333 541.333 75.8666 549.467 76.2666C555.2 76.4 559.6 76.5333 559.333 76.2666C559.067 76 554 74.6666 548 73.3333C542 72 537.067 70.6666 536.8 70.4C536.667 70.2666 535.6 67.8666 534.4 65.2C532.4 60.8 531.6 60.2666 525.333 59.4666C516.933 58.4 500.667 52.5333 495.333 48.6666C488.8 44 486.933 43.4666 468 42.8C454.667 42.1333 450.133 41.6 450.4 40.2666C450.533 39.3333 449.067 38.6666 446.267 38.6666C444 38.6666 440.133 38.1333 438 37.4666C435.067 36.6666 433.467 36.9333 432.267 38.1333Z"
    />
    <path
        d="M385.333 52.6667C382.933 55.6 384.133 56.2667 391.467 55.7334L398 55.3334L393.733 52.9334C388.533 50.1334 387.467 50.1334 385.333 52.6667Z"
    />
    <path
        d="M419.733 56.9334C420.667 57.3334 421.867 57.2001 422.267 56.8001C422.8 56.4001 422 56.0001 420.533 56.1334C419.067 56.1334 418.667 56.5334 419.733 56.9334Z"
    />
    <path
        d="M409.867 59.3334C407.467 61.2 407.467 61.2 410.267 61.3334C413.333 61.3334 415.467 59.3334 413.6 58.1334C412.933 57.7334 411.2 58.2667 409.867 59.3334Z"
    />
    <path
        d="M530.667 83.8667C530.667 84.6667 531.2 85.4667 531.867 85.8667C533.6 86.9334 537.467 85.3334 536.533 83.8667C535.6 82.2667 530.667 82.2667 530.667 83.8667Z"
    />
    <path
        d="M560.933 87.6001C572.667 96.5334 576 99.3334 576 100.267C576 102.267 572.267 101.333 565.2 97.3334C557.6 93.2001 556 92.6667 556 94.4001C556 96.6667 569.2 102.667 576.933 104.133C581.067 104.933 586.267 106.4 588.133 107.467C592.4 109.6 609.333 116 609.333 115.467C609.333 115.2 606.133 112.933 602.4 110.4C598.533 107.867 590.8 101.467 585.333 96.4001C573.333 85.2001 568.8 82.6667 560.667 82.6667H554.4L560.933 87.6001Z"
    />
    <path
        d="M592.4 114.4C594.933 117.067 597.067 118.133 598.8 117.733C602 116.8 602.133 117.067 594.667 113.333L588.667 110.4L592.4 114.4Z"
    />
    <path
        d="M619.6 128.267C621.067 130 623.067 133.6 624 136.4C625.467 140.933 628.533 144 631.733 144C634.267 144 630.133 134.133 625.6 129.733C620.533 124.533 615.067 123.333 619.6 128.267Z"
    />
    <path
        d="M645.333 150.667C648.533 154.8 649.2 156.533 648.133 157.867C646.533 159.733 649.867 163.6 655.6 166.533C661.2 169.467 666.933 167.2 664.267 163.067C663.067 161.467 642.8 145.333 641.867 145.333C641.467 145.333 643.067 147.733 645.333 150.667Z"
    />
    <path
        d="M657.333 175.067C657.333 178.267 661.067 182.133 666.533 184.667C669.6 186 672 187.867 672 188.933C672 190 673.2 193.067 674.667 196C676.133 198.933 677.333 203.6 677.333 206.4C677.333 211.067 678 212 682.667 215.2C686.933 218 688 219.467 688 222.667C688 226.4 693.6 234.8 695.2 233.333C696 232.4 683.467 198 681.467 195.467C680.667 194.533 680.4 193.467 680.8 193.067C682.133 191.733 674.667 178.667 672.533 178.667C671.467 178.667 668.267 177.467 665.333 176C659.2 172.933 657.333 172.667 657.333 175.067Z"
    />
    <path
        d="M114 193.6C112.267 196.267 112.267 196.933 113.867 198C114.8 198.8 115.867 200.533 116.267 202C116.667 204.4 116.933 204.267 119.2 200.933C121.2 197.867 121.467 196.667 120.267 194C118.4 189.867 116.8 189.867 114 193.6Z"
    />
    <path
        d="M701.333 245.733C701.333 247.867 704.533 252.533 710.267 259.067C714.933 264.4 716 267.067 712.667 265.867C710.267 264.933 710.267 264.533 712.8 275.467C713.867 280.4 714.533 285.6 714.267 286.933C713.333 290.533 715.333 289.867 717.067 286C721.333 276.667 719.733 258.267 714.667 256.933C712.667 256.4 712 255.067 712 251.2C712 248.533 711.6 246.533 711.2 247.067C710.667 247.467 708.267 247.067 705.867 246C702.4 244.533 701.333 244.533 701.333 245.733Z"
    />
    <path
        d="M179.067 246.267C177.733 246.8 177.333 261.6 177.333 314C177.333 380 177.333 381.2 180 382C182.667 382.8 182.667 384 182.667 444.8V506.667H188.667H194.667V527.333V548L262.4 547.733L330 547.333L330.4 530.933L330.8 514.667H345.333H360V479.333V444H350H340V438V432.133L350.4 431.733L360.667 431.333L361.067 340C361.333 255.333 361.2 248.533 359.067 246.933C356.267 244.933 307.733 244.667 303.867 246.667C301.333 248 301.333 250.533 301.333 345.333V442.667H294H286.667V468.667V494.667H273.333C253.2 494.667 246.4 491.067 241.067 477.467C238.533 470.8 238.133 466.8 237.6 442.667L237.067 415.333H252.933H268.667L269.067 410.267L269.467 405.333H253.467H237.333V326.133C237.333 255.2 237.067 246.933 235.2 246.133C232.667 245.2 181.467 245.2 179.067 246.267ZM235.733 410.267L235.333 414H222.667H210L209.6 410.267L209.2 406.667H222.667H236.133L235.733 410.267Z"
    />
    <path
        d="M524 246.267C512.533 247.067 496.667 249.467 489.333 251.467C465.067 258.267 447.067 274.8 438.133 298.4C431.067 317.067 430.533 322.133 429.733 379.6L429.067 433.333H424.533H420V454.667V476H429.333H438.667V493.2C438.667 508.133 438.933 510.533 440.933 511.2C442.133 511.733 451.333 512 461.333 511.867L479.333 511.733V515.467V519.333L465.733 519.733L452 520.133V531.867C452 541.733 452.4 543.867 454.267 544.533C455.467 545.067 464.933 545.333 475.2 545.2C487.867 545.067 494 545.467 494.4 546.533C495.067 548.4 537.333 548.533 537.333 546.667C537.333 545.867 546.667 545.333 562.533 545.333C576.4 545.333 588.667 544.933 589.867 544.533C591.733 543.867 592 540.4 592 520.533V497.333H604.667H617.333L617.067 458.933L616.667 420.667L593.733 420.267L570.667 420V458V496H530.667H490.667V460V424.133L481.067 423.733L471.333 423.333V419.333V415.333L481.067 414.933L490.667 414.533V384.267C490.667 350.533 493.2 323.6 497.2 314.267C502 303.2 511.333 298.667 529.333 298.667C538.933 298.667 542 299.2 546.8 301.733C558.267 307.867 563.067 317.733 564.933 339.2L565.733 348.4L585.867 347.467C596.933 346.933 609.333 346 613.333 345.6L620.667 344.667L621.067 338C621.467 332.133 620.8 326.667 617.867 311.733L617.2 308L639.467 307.733C658.933 307.333 661.867 307.067 663.2 304.933C664.267 303.333 664.267 302 663.2 300.267C661.867 298.267 658.667 297.867 638.133 297.333L614.533 296.667L610.933 288.667C605.867 277.467 604.4 275.2 599.067 269.2C593.333 262.8 581.467 255.467 571.333 252C564.133 249.467 537.067 245.067 532.267 245.6C531.067 245.733 527.333 246 524 246.267ZM614 303.333C614 305.867 613.067 306 601.333 306C589.2 306 588.667 305.867 588.267 302.933C587.867 299.867 600.933 300.267 600.933 300.267C600.933 300.267 614 300.933 614 303.333Z"
    />
    <path
        d="M718 299.867C718.8 302.533 718.667 302.8 716.267 301.467C711.733 299.067 711.733 299.6 716.933 309.6C721.6 318.533 722 319.067 722.4 315.333C723.067 307.467 724 305.467 726 306.133C729.333 307.467 728.267 306 722.533 301.333C717.6 297.467 717.2 297.333 718 299.867Z"
    />
    <path
        d="M717.733 326.533C718.267 328.933 720 332.8 721.6 335.067C723.333 337.333 725.333 341.067 726.267 343.2C727.733 347.067 727.867 346.933 727.867 339.333C728 331.6 727.867 331.2 722.4 326.8L716.933 322.133L717.733 326.533Z"
    />
    <path
        d="M64.6666 375.067C63.1999 386.933 65.3333 402.267 68.2666 400.533C69.7333 399.6 68.5333 377.467 66.6666 370.933C65.8666 367.867 65.5999 368.4 64.6666 375.067Z"
    />
    <path
        d="M724.133 376C722.8 378.8 722.933 380.267 724.533 384.267C728.8 394.4 730.4 391.6 727.467 379.333C725.867 372.8 725.733 372.8 724.133 376Z"
    />
    <path
        d="M759.733 392C757.067 395.6 756.533 404.667 758.8 406.133C761.467 407.733 762.8 404.4 762.4 396.533L762 388.667L759.733 392Z"
    />
    <path
        d="M84 476.533C84 481.333 86.6667 485.333 89.8667 485.333C93.7333 485.333 100 482.8 100 481.2C100 479.333 96.8 478.133 96.2667 479.733C96 480.8 94 480.133 90.9333 478C85.3333 474.133 84 473.867 84 476.533Z"
    />
    <path
        d="M75.6 497.067C78.1333 501.733 81.3333 505.2 81.3333 503.2C81.3333 502.533 79.4667 499.867 77.2 497.333L73.0667 492.667L75.6 497.067Z"
    />
    <path
        d="M110.933 543.467C111.2 544.133 112.267 546.667 113.2 548.933C114.133 551.333 115.467 553.333 116.133 553.333C116.933 553.333 120.267 556 123.733 559.2C130.533 565.6 136.133 568.4 139.333 567.2C142.267 566 141.867 565.067 135.2 558.667C131.6 555.2 129.6 553.867 130.533 555.6C132.8 560 132.4 560.267 127.067 558C120.8 555.333 114.933 549.867 114.4 546.267C114.133 544.8 113.2 543.333 112.133 542.933C111.2 542.667 110.533 542.8 110.933 543.467Z"
    />
    <path
        d="M144 576.8C144 577.333 147.333 581.867 151.467 586.8C159.2 596.267 163.333 599.067 159.067 592C157.867 589.733 156 588 155.2 588C154.267 588 153.2 586.8 152.667 585.467C151.067 580.267 144 573.333 144 576.8Z"
    />
    <path
        d="M625.467 625.6C624.4 627.333 622.667 630.133 621.467 632L619.467 635.333L622.533 632.667C627.333 628.533 631.2 622.667 629.067 622.667C628.133 622.667 626.533 624 625.467 625.6Z"
    />
    <path
        d="M603.067 644C600.533 645.067 597.6 650.133 598.933 651.333C599.067 651.6 601.733 649.733 604.667 647.2C609.733 642.933 609.2 641.6 603.067 644Z"
    />
    <path
        d="M581.6 655.867C576 660.8 575.867 660.933 578.933 661.733C582.133 662.667 583.867 661.2 587.467 654.267C590.133 649.333 588.4 649.867 581.6 655.867Z"
    />
    <path
        d="M244 675.733C244 679.467 244.667 680 251.067 682.4C254.8 683.867 261.6 685.733 266 686.533C277.067 688.8 286.133 691.867 288 693.867C289.067 695.333 290.133 695.333 292.667 694.133C294.533 693.333 296 692.267 296 691.733C296 689.867 288.133 686.667 283.333 686.667C277.333 686.667 264.8 682.4 254.133 676.933C249.6 674.533 245.6 672.533 245.067 672.267C244.4 672 244 673.6 244 675.733Z"
    />
    <path
        d="M300.4 704.933C298.133 705.733 298.267 708.667 300.667 710.667C303.333 712.8 311.6 712.933 313.733 710.8C315.067 709.333 314.8 709.067 312.4 709.733C310.667 710.133 308.8 709.6 307.867 708.4C305.6 705.733 302.267 704.267 300.4 704.933Z"
    />
    <path
        d="M496.133 709.467C495.333 711.867 494.667 714 494.667 714.267C494.667 715.467 497.333 712.933 500 709.333C502.8 705.467 502.8 705.333 500.267 705.333C498.533 705.333 497.067 706.8 496.133 709.467Z"
    />
    <path
        d="M382 710.267C377.867 711.333 375.733 713.6 376.4 716.267C376.933 718 376.4 718.667 374.533 718.667C373.2 718.667 372 719.333 372 720.133C372 721.2 374.267 721.467 378.8 721.067C384.533 720.533 386.4 719.6 390 715.6C393.333 711.867 394 710.667 392.4 710.133C390.133 709.2 386 709.333 382 710.267Z"
    />
    <path
        d="M499.067 745.467C496.667 746.133 494.4 747.2 494 748C493.6 748.667 495.067 748.667 497.6 747.867C500 747.2 504.267 746.667 507.067 746.667C510.133 746.667 511.867 746.133 511.333 745.333C510.4 743.733 504.933 743.733 499.067 745.467Z"
    />
    <path
        d="M312 750.667C312 751.333 313.6 752 315.467 752C317.333 752 318.533 751.467 318 750.667C317.6 749.867 316 749.333 314.533 749.333C313.2 749.333 312 749.867 312 750.667Z"
    />
</svg>