<svg id="sl-logo" viewBox="0 0 3346 400" xmlns="http://www.w3.org/2000/svg">
    <path
        d="M367.273 105.455V181.818H358.182C351.636 181.818 349.091 183.636 349.091 189.091C349.091 194.545 351.636 196.364 358.182 196.364H367.273V283.636V371.273L397.454 370.182L427.273 369.091L428.364 284.364C428.727 232.364 430.545 200 432.727 200C434.909 200 436.364 168 436.364 114.545V29.0909H401.818H367.273V105.455ZM400 189.091C400 190.909 393.454 192.727 385.454 192.727C377.454 192.727 370.909 190.909 370.909 189.091C370.909 186.909 377.454 185.455 385.454 185.455C393.454 185.455 400 186.909 400 189.091Z"
         />
    <path
        d="M520 158.182C520 270.545 520.727 287.273 525.455 287.273C529.818 287.273 530.909 293.455 530.909 321.818C530.909 353.818 530.545 356.364 523.636 356.364C519.636 356.364 516.364 358.909 516.364 361.818C516.364 366.182 522.182 367.273 547.273 367.273C572.364 367.273 578.182 366.182 578.182 361.818C578.182 358.909 580.727 356.364 583.636 356.364C586.545 356.364 589.091 353.091 589.091 349.091C589.091 343.636 586.545 341.818 580 341.818C574.182 341.818 570.909 339.636 570.909 336.364C570.909 333.091 574.182 330.909 580 330.909C588.727 330.909 589.091 330.182 589.091 304C589.091 289.091 587.636 275.636 585.455 274.545C580.727 271.636 580.727 221.818 585.455 221.818C587.636 221.818 590.182 226.545 591.636 232.727C592.727 238.545 596 243.636 598.545 243.636C602.182 243.636 603.636 249.455 603.636 265.455C603.636 284.727 604.364 287.273 610.909 287.273C617.455 287.273 618.182 289.818 618.182 307.273V327.273H630.909C643.273 327.273 643.636 327.636 643.636 341.818V356.364H665.455H687.273V332.727C687.273 309.818 687.636 309.091 696.364 309.091C704.364 309.091 705.455 307.636 705.455 296.727C705.455 285.818 706.545 284 715.636 282.909C725.091 281.818 725.455 281.091 727.273 253.091C728.364 234.545 730.909 223.636 733.818 222.545C736.727 221.455 738.182 226.909 738.182 241.455C738.182 257.091 739.273 261.818 743.636 261.818C748 261.818 749.091 268.727 749.091 301.818C749.091 326.182 747.636 341.818 745.455 341.818C743.636 341.818 741.818 348.364 741.818 356.364V370.909H772.727H803.636V334.545V298.182H821.818C835.636 298.182 840 296.727 840 292.727C840 288.727 835.636 287.273 822.182 287.273H804.727L802.545 257.091C801.091 240.727 800 182.545 800 128V28.7273L764.727 29.8182L729.091 30.9091L703.636 120.727L678.182 210.909H663.636H649.091L623.636 120.727L598.182 30.9091L559.273 29.8182L520 28.7273V158.182ZM575.636 217.091C573.091 217.818 568.727 217.818 566.545 217.091C564 216 565.818 215.273 570.909 215.273C576 215.273 577.818 216 575.636 217.091ZM633.818 217.091C625.091 217.818 611.273 217.818 602.909 217.091C594.182 216.364 601.091 215.636 618.182 215.636C635.273 215.636 642.182 216.364 633.818 217.091ZM719.273 217.091C711.636 217.818 699.273 217.818 692 217.091C684.364 216.364 690.545 215.636 705.455 215.636C720.364 215.636 726.545 216.364 719.273 217.091ZM770.182 217.091C764.364 217.818 755.636 217.818 750.182 217.091C744.364 216.364 749.091 215.636 760 215.636C770.909 215.636 775.636 216.364 770.182 217.091ZM672.727 245.455C672.727 258.909 671.273 269.091 669.091 269.091C667.273 269.091 665.455 262.545 665.455 254.545C665.455 244.727 663.636 238.909 660 237.818C657.091 236.364 654.545 232.364 654.545 228.727C654.545 223.636 657.091 221.818 663.636 221.818C672.364 221.818 672.727 222.545 672.727 245.455ZM801.091 293.455C798.545 294.182 793.455 294.182 790.182 293.455C786.545 292.364 788.727 291.636 794.545 291.636C800.727 291.636 803.273 292.364 801.091 293.455Z"
         />
    <path
        d="M912.727 123.273V218.182H927.273C939.273 218.182 941.818 219.273 941.818 225.455C941.818 231.636 939.273 232.727 927.273 232.727H912.727V290.909C912.727 327.273 914.182 349.091 916.364 349.091C918.545 349.091 920 353.818 920 360V370.909H947.273H974.545V347.273C974.545 333.818 973.091 323.636 970.909 323.636C968.727 323.636 967.273 312.727 967.273 298.182C967.273 277.818 968.364 272.727 972.727 272.727C976.727 272.727 978.182 268.727 978.182 258.182V244L1015.64 242.909L1052.73 241.818L1053.82 231.636C1054.91 221.818 1055.27 221.818 1082.18 221.818H1109.09V194.545V167.273H1132.73H1156.36V156.364V145.455H1132.73H1109.09V123.636C1109.09 98.5454 1098.55 66.5454 1085.82 54.909C1067.64 37.8181 1042.91 32 975.636 29.8181L912.727 28V123.273ZM1036 100.364C1041.82 108 1043.64 115.273 1043.64 133.455C1043.64 166.545 1040.36 170.909 1016.36 170.909C998.909 170.909 996.364 171.636 996.364 178.182C996.364 183.636 993.818 185.455 987.273 185.455H978.182V138.182V90.909H1003.27C1026.18 90.909 1029.09 91.6363 1036 100.364ZM1105.45 156.364C1105.45 162.182 1102.91 163.636 1092.73 163.636C1082.55 163.636 1080 162.182 1080 156.364C1080 150.545 1082.55 149.091 1092.73 149.091C1102.91 149.091 1105.45 150.545 1105.45 156.364Z"
         />
    <path
        d="M1225.45 150.909V272.727H1234.55C1239.64 272.727 1243.64 274.182 1243.64 276.364C1243.64 278.182 1239.64 280 1234.55 280H1225.45V321.818V363.636H1269.09C1295.64 363.636 1312.73 365.091 1312.73 367.273C1312.73 369.455 1326.55 370.909 1347.27 370.909H1381.82V360C1381.82 349.818 1382.91 349.091 1394.55 349.091C1401.45 349.091 1407.27 347.273 1407.27 345.455C1407.27 343.273 1401.45 341.818 1394.55 341.818C1382.18 341.818 1381.82 341.455 1381.82 327.273V312.727H1332.73H1283.64V241.818C1283.64 181.091 1284.36 170.909 1289.09 170.909C1293.82 170.909 1294.55 160.727 1294.55 100V29.0909H1260H1225.45V150.909ZM1375.64 348C1373.09 348.727 1368.73 348.727 1366.55 348C1364 346.909 1365.82 346.182 1370.91 346.182C1376 346.182 1377.82 346.909 1375.64 348Z"
         />
    <path
        d="M1493.45 31.6364C1492 32.7273 1490.91 67.2727 1490.91 107.636C1490.91 181.455 1490.91 181.455 1482.91 182.545C1472 184 1472 194.182 1482.55 195.636C1490.91 196.727 1490.91 197.091 1491.64 282.909L1492.73 369.091L1522.91 370.182L1552.73 371.273V285.455C1552.73 230.909 1554.18 200 1556.36 200C1558.55 200 1560 169.091 1560 114.545V29.0909H1528C1510.18 29.0909 1494.55 30.1818 1493.45 31.6364ZM1523.64 189.091C1523.64 190.909 1517.09 192.727 1509.09 192.727C1501.09 192.727 1494.55 190.909 1494.55 189.091C1494.55 186.909 1501.09 185.455 1509.09 185.455C1517.09 185.455 1523.64 186.909 1523.64 189.091Z"
         />
    <path
        d="M1658.18 107.273V185.455H1669.09C1675.27 185.455 1680 186.909 1680 189.091C1680 190.909 1676.73 192.727 1672.73 192.727C1665.82 192.727 1665.45 195.273 1665.45 252.727C1665.45 290.182 1664 312.727 1661.82 312.727C1660 312.727 1658.18 320 1658.18 329.091C1658.18 342.909 1659.27 345.455 1665.45 345.455C1669.45 345.455 1672.73 346.909 1672.73 349.091C1672.73 350.909 1669.45 352.727 1665.45 352.727C1660 352.727 1658.18 355.273 1658.18 361.818C1658.18 370.182 1659.64 370.909 1674.55 370.909C1683.64 370.909 1690.91 369.091 1690.91 367.273C1690.91 365.091 1699.27 363.636 1709.09 363.636H1727.27V321.818V280H1743.64C1752.73 280 1760 278.182 1760 276.364C1760 274.182 1752.73 272.727 1743.64 272.727H1727.27V258.545C1727.27 248 1725.45 243.636 1721.09 242.545C1717.45 241.455 1722.18 240.727 1732 240.364C1746.55 240 1749.09 238.909 1749.09 232.727C1749.09 226.545 1752 225.818 1780.73 224.727C1801.82 224 1812.73 222.182 1813.82 218.909C1814.55 216.727 1812.73 214.545 1809.45 214.545C1805.09 214.545 1803.64 210.909 1803.64 201.818C1803.64 193.091 1805.45 189.091 1809.09 189.091C1812.73 189.091 1814.55 185.455 1814.55 178.182V167.273H1770.91H1727.27V129.091V90.9091H1778.18H1829.09V60V29.0909H1743.64H1658.18V107.273ZM1717.45 275.273C1712.73 276 1705.45 276 1701.09 275.273C1696.36 274.545 1700 273.818 1709.09 273.818C1718.18 273.818 1721.82 274.545 1717.45 275.273Z"
         />
    <path
        d="M1936 50.9091L1938.55 72.7273H1916.36C1897.09 72.7273 1894.55 73.4545 1894.55 80C1894.55 86.5454 1897.09 87.2727 1917.45 87.2727H1940L1954.18 120.727C1988 201.455 1995.27 214.545 2005.09 214.545C2010.18 214.545 2014.55 216 2014.55 218.182C2014.55 220 2010.55 221.818 2005.45 221.818H1996.36V269.091C1996.36 308.727 1997.09 316.364 2001.82 316.364C2006.18 316.364 2007.27 321.818 2007.27 343.636V370.909H2041.82H2076.36V316.364V261.818H2089.09C2099.27 261.818 2101.82 260.364 2101.82 254.545C2101.82 248.727 2099.27 247.273 2089.09 247.273H2076.36V220.364V193.091L2088 192C2098.91 190.909 2100.36 188.727 2118.55 146.909C2136.36 105.818 2149.09 60.3636 2149.09 38.1818V28.7273L2117.45 29.8182L2085.45 30.9091L2082.91 55.6363C2079.64 90.1818 2040 196 2040 170.909C2040 168.727 2032.73 147.273 2023.64 123.273C2013.09 94.9091 2006.55 70.5454 2005.09 54.1818L2002.55 29.0909H1968H1933.45L1936 50.9091ZM1967.27 78.1818C1967.27 81.8182 1963.27 83.6363 1954.55 83.6363C1945.82 83.6363 1941.82 81.8182 1941.82 78.1818C1941.82 74.5454 1945.82 72.7273 1954.55 72.7273C1963.27 72.7273 1967.27 74.5454 1967.27 78.1818ZM2072.73 254.545C2072.73 256.364 2065.45 258.182 2056.36 258.182C2047.27 258.182 2040 256.364 2040 254.545C2040 252.364 2047.27 250.909 2056.36 250.909C2065.45 250.909 2072.73 252.364 2072.73 254.545Z"
         />
    <path
        d="M2425.45 150.909V272.727H2434.55C2439.64 272.727 2443.64 274.182 2443.64 276.364C2443.64 278.182 2439.64 280 2434.55 280H2425.45V321.818V363.636H2470.91C2498.91 363.636 2516.36 365.091 2516.36 367.273C2516.36 369.455 2529.82 370.909 2549.09 370.909H2581.82V360C2581.82 349.818 2582.91 349.091 2594.55 349.091C2601.45 349.091 2607.27 347.273 2607.27 345.455C2607.27 343.273 2601.45 341.818 2594.55 341.818C2582.18 341.818 2581.82 341.455 2581.82 327.273V312.727H2532.73H2483.64V241.818C2483.64 181.091 2484.36 170.909 2489.09 170.909C2493.82 170.909 2494.55 160.727 2494.55 100V29.0909H2460H2425.45V150.909ZM2575.64 348C2573.09 348.727 2568.73 348.727 2566.55 348C2564 346.909 2565.82 346.182 2570.91 346.182C2576 346.182 2577.82 346.909 2575.64 348Z"
         />
    <path
        d="M2694.55 105.455V181.818H2685.45C2678.91 181.818 2676.36 183.636 2676.36 189.091C2676.36 194.545 2678.91 196.364 2685.45 196.364H2694.55V283.636V370.909H2723.64H2752.73V285.455C2752.73 230.909 2754.18 200 2756.36 200C2758.55 200 2760 169.091 2760 114.545V29.0909H2727.27H2694.55V105.455ZM2727.27 189.091C2727.27 190.909 2720.73 192.727 2712.73 192.727C2704.73 192.727 2698.18 190.909 2698.18 189.091C2698.18 186.909 2704.73 185.455 2712.73 185.455C2720.73 185.455 2727.27 186.909 2727.27 189.091Z"
         />
    <path
        d="M2858.18 107.273V185.455H2869.09C2875.27 185.455 2880 186.909 2880 189.091C2880 190.909 2876.73 192.727 2872.73 192.727C2865.82 192.727 2865.45 195.273 2865.45 252.727C2865.45 290.182 2864 312.727 2861.82 312.727C2860 312.727 2858.18 320 2858.18 329.091C2858.18 344 2858.91 345.455 2867.27 345.455C2872.36 345.455 2876.36 346.909 2876.36 349.091C2876.36 350.909 2872.36 352.727 2867.27 352.727C2860 352.727 2858.18 354.545 2858.18 361.818C2858.18 370.182 2859.64 370.909 2874.55 370.909C2883.64 370.909 2890.91 369.091 2890.91 367.273C2890.91 365.091 2899.27 363.636 2909.09 363.636H2927.27V321.818V280H2943.64C2952.73 280 2960 278.182 2960 276.364C2960 274.182 2952.73 272.727 2943.64 272.727H2927.27V258.545C2927.27 250.545 2925.45 243.273 2922.91 242.545C2920.36 241.455 2925.09 240.364 2933.82 240.364C2946.55 240 2949.09 238.909 2949.09 232.727C2949.09 225.818 2951.64 225.455 2981.82 225.455C3008.36 225.455 3014.55 224.364 3014.55 220C3014.55 217.091 3012 214.545 3009.09 214.545C3005.09 214.545 3004.36 211.636 3006.18 202.545C3007.27 196.364 3009.82 190.182 3011.64 189.818C3013.09 189.091 3014.55 183.636 3014.55 177.818V167.273H2970.91H2927.27V129.091V90.9091H2978.18H3029.09V60V29.0909H2943.64H2858.18V107.273ZM2919.27 275.273C2915.64 276 2909.09 276 2904.73 275.273C2900 274.545 2902.91 273.818 2910.91 273.818C2918.91 273.455 2922.55 274.182 2919.27 275.273Z"
         />
    <path
        d="M3145.45 112.727V196.364H3118.18C3096.36 196.364 3090.91 197.455 3090.91 201.818C3090.91 206.182 3096.36 207.273 3118.18 207.273H3145.45V229.091C3145.45 241.091 3146.91 250.909 3149.09 250.909C3151.27 250.909 3152.73 273.455 3152.73 310.909V370.909H3178.18C3192.73 370.909 3203.64 369.455 3203.64 367.273C3203.64 365.091 3223.64 363.636 3256.36 363.636H3309.09V344.364C3309.09 334.182 3310.18 321.818 3311.27 317.091C3313.45 309.091 3313.45 309.091 3271.27 309.091H3229.09V300C3229.09 292.364 3227.27 290.909 3217.45 290.545L3205.45 290.182L3216.36 287.636L3227.27 285.455L3228.36 251.636L3229.45 218.182H3265.45C3285.09 218.182 3302.18 216.727 3303.27 215.273C3304.36 213.455 3304 200.364 3302.91 186.182L3300.73 160H3257.82H3214.55V125.455V90.9091H3263.64H3312.73V60V29.0909H3229.09H3145.45V112.727ZM3166.55 202.545C3162.91 203.273 3157.09 203.273 3153.82 202.545C3150.18 201.455 3153.09 200.727 3160 200.727C3166.91 200.727 3169.82 201.455 3166.55 202.545Z"
         />
    <path
        d="M118.545 38.1817C84.3636 50.1817 69.0909 73.8181 69.0909 113.818C69.0909 146.182 74.5454 163.636 89.8182 181.818L102.545 196.364H89.0909C80 196.364 76.3636 197.818 77.0909 200.727C78.1818 204 89.0909 205.818 110.182 206.545L141.818 207.636V220V232.727H169.091H196.364V274.545V316.364H161.818H127.273V287.273V258.182H92.7272C64.3636 258.182 58.1818 259.273 58.1818 263.636C58.1818 267.636 54.1818 269.091 45.0909 269.091C34.9091 269.091 32.3636 270.182 33.4545 275.273C34.1818 279.636 38.5454 282.182 46.5454 282.909C57.8182 284 58.1818 284.727 58.1818 300.364V316.364H74.5454H90.9091V343.636V370.909H167.273H243.636V343.636C243.636 317.091 244 316.364 252.727 316.364H261.818V265.455C261.818 233.818 260.364 214.545 258.182 214.545C256.364 214.545 254.545 212.727 254.545 210.909C254.545 208.727 259.636 207.273 265.455 207.273C272.727 207.273 276.364 205.454 276.364 201.818C276.364 198.182 272.364 196.364 263.636 196.364C256.727 196.364 250.909 197.818 250.909 200C250.909 202.182 236 203.273 212 202.909C174.545 202.182 174.182 202.182 202.909 201.091C219.273 200.364 232.727 198.545 232.727 197.091C232.727 193.091 210.909 180 180 165.818C141.091 147.636 134.545 141.454 134.545 120C134.545 97.8181 141.818 90.909 165.818 90.909C175.636 90.909 185.455 92.3636 187.636 93.8181C193.455 97.8181 200 111.273 200 119.636C200 128 205.818 129.091 238.909 125.091L258.182 122.545L256 107.636C252.727 87.2727 241.091 60.3636 231.273 51.2727C226.909 47.2727 216.364 41.4545 207.636 38.1817C187.636 31.2727 137.818 31.2727 118.545 38.1817ZM76.3636 274.545C76.3636 277.818 73.0909 280 67.2727 280C61.4545 280 58.1818 277.818 58.1818 274.545C58.1818 271.273 61.4545 269.091 67.2727 269.091C73.0909 269.091 76.3636 271.273 76.3636 274.545Z"
         />
</svg>