<svg id="ut-logo" viewBox="0 0 3091 400" xmlns="http://www.w3.org/2000/svg">
    <path
        d="M21.8181 73.8182C21.8181 96.7273 22.909 162.182 24.3636 219.273C26.5454 317.455 26.909 323.636 33.4545 323.636C39.2727 323.636 39.9999 326.909 39.9999 347.273V370.909H116.364H192.727V352.727V334.545H209.091H225.454V294.545V254.545H214.545C199.273 254.545 200 244.364 215.636 242.909L227.273 241.818V138.182V34.5455L193.818 33.4546L160 32.3637V141.818V250.909H150.909C141.818 250.909 141.818 251.273 141.818 281.818V312.727H131.273C114.182 312.727 99.6363 305.818 94.5454 295.273C91.9999 289.818 89.0908 271.273 87.9999 253.455L86.1818 221.818H105.091C119.273 221.818 123.636 220.364 123.636 216.364C123.636 212.364 119.273 210.909 105.454 210.909H87.2727V121.818V32.7273H54.5454H21.8181V73.8182ZM79.2727 217.091C75.6363 217.818 69.0908 217.818 64.7272 217.091C59.9999 216.364 62.909 215.636 70.909 215.636C78.909 215.273 82.5454 216 79.2727 217.091Z"
         />
    <path
        d="M298.182 61.8182V90.9091H330.909H363.636V230.909V370.909H396.364C415.636 370.909 429.091 369.455 429.091 367.273C429.091 365.091 425.818 363.636 421.818 363.636C417.818 363.636 414.545 361.818 414.545 360C414.545 357.818 418.545 356.364 423.636 356.364C431.636 356.364 432.727 354.909 432.727 343.636C432.727 331.273 433.091 330.909 447.273 330.909C457.818 330.909 461.818 329.455 461.818 325.455C461.818 321.455 457.818 320 447.273 320H432.727V205.455V90.9091H465.454H498.182V61.8182V32.7273H398.182H298.182V61.8182ZM426.545 326.182C424 326.909 418.909 326.909 415.636 326.182C412 325.091 414.182 324.364 420 324.364C426.182 324.364 428.727 325.091 426.545 326.182Z"
         />
    <path
        d="M570.909 109.091V185.455H561.818C556 185.455 552.727 187.636 552.727 190.909C552.727 194.182 556 196.364 561.818 196.364H570.909V283.636V370.909H600H629.091V285.455C629.091 212 629.818 200 634.545 200C639.273 200 640 188.364 640 116.364V32.7273H605.455H570.909V109.091ZM597.455 191.636C592.727 192.364 585.455 192.364 581.091 191.636C576.364 190.909 580 190.182 589.091 190.182C598.182 190.182 601.818 190.909 597.455 191.636Z"
         />
    <path
        d="M723.636 152.727C723.636 270.182 723.636 272.727 730.909 272.727C734.909 272.727 738.182 274.182 738.182 276.364C738.182 278.182 734.909 280 730.909 280C724 280 723.636 282.545 723.636 323.636V367.273H750.182C764.364 367.273 799.636 368.364 828.364 369.818L880 372V362.545C880 354.182 881.454 352.727 890.909 352.727C898.182 352.727 901.818 350.909 901.818 347.273C901.818 343.636 898.182 341.818 890.909 341.818C880.727 341.818 880 341.091 880 327.273V312.727H829.091H778.182V243.636C778.182 177.091 778.545 174.545 785.454 174.545C792.364 174.545 792.727 172 792.727 103.636V32.7273H758.182H723.636V152.727ZM873.818 348C871.273 348.727 866.182 348.727 862.909 348C859.273 346.909 861.454 346.182 867.273 346.182C873.454 346.182 876 346.909 873.818 348Z"
         />
    <path
        d="M989.091 109.091V185.455H980C974.182 185.455 970.909 187.636 970.909 190.909C970.909 194.182 974.182 196.364 980 196.364H989.091V283.636V370.909H1020H1050.91V285.455C1050.91 230.909 1052.36 200 1054.55 200C1056.73 200 1058.18 169.818 1058.18 116.364V32.7273H1023.64H989.091V109.091ZM1015.64 191.636C1010.91 192.364 1003.64 192.364 999.273 191.636C994.545 190.909 998.182 190.182 1007.27 190.182C1016.36 190.182 1020 190.909 1015.64 191.636Z"
         />
    <path
        d="M1127.27 61.8182V90.9091H1160H1192.73V230.909V370.909H1225.45C1244.73 370.909 1258.18 369.455 1258.18 367.273C1258.18 365.091 1254.91 363.636 1250.91 363.636C1246.91 363.636 1243.64 361.818 1243.64 360C1243.64 357.818 1247.64 356.364 1252.73 356.364C1260.73 356.364 1261.82 354.909 1261.82 343.636C1261.82 331.273 1262.18 330.909 1276.36 330.909C1286.91 330.909 1290.91 329.455 1290.91 325.455C1290.91 321.455 1286.91 320 1276.36 320H1261.82V205.455V90.9091H1294.55H1327.27V61.8182V32.7273H1227.27H1127.27V61.8182ZM1255.64 326.182C1253.09 326.909 1248 326.909 1244.73 326.182C1241.09 325.091 1243.27 324.364 1249.09 324.364C1255.27 324.364 1257.82 325.091 1255.64 326.182Z"
         />
    <path
        d="M1404.36 52.7273L1405.45 72.3636L1383.64 73.4546C1366.18 74.1818 1361.82 76 1360.73 80.7273C1359.64 86.5455 1362.55 87.2727 1385.09 87.2727C1405.09 87.2727 1410.91 88.3636 1410.91 92.3636C1410.91 95.2727 1422.18 123.636 1436 155.273C1460.36 210.182 1461.82 212.727 1472.36 213.818C1485.82 215.273 1487.64 221.818 1474.55 221.818H1465.45V269.091C1465.45 308.727 1466.18 316.364 1470.91 316.364C1475.27 316.364 1476.36 321.818 1476.36 343.636V370.909H1510.91H1545.45V318.182V265.455H1558.18C1568.36 265.455 1570.91 264 1570.91 258.182C1570.91 252.364 1568.36 250.909 1558.18 250.909H1545.45V223.636V196.364H1555.64C1565.45 196.364 1566.91 193.818 1586.18 148C1605.45 102.545 1611.27 83.2727 1616.36 48L1618.91 32.7273H1586.18H1553.82L1551.27 56.3636C1549.82 70.1818 1542.18 98.5455 1532.36 124.727C1523.27 149.091 1515.27 171.636 1514.18 174.545C1512.36 180 1486.55 117.818 1477.82 85.4546C1474.91 75.6364 1472.73 59.6364 1472.73 50.1818V32.7273H1437.82H1402.91L1404.36 52.7273ZM1436.36 80C1436.36 81.8182 1430.55 83.6364 1423.64 83.6364C1416.73 83.6364 1410.91 81.8182 1410.91 80C1410.91 77.8182 1416.73 76.3636 1423.64 76.3636C1430.55 76.3636 1436.36 77.8182 1436.36 80ZM1541.82 258.182C1541.82 260 1534.55 261.818 1525.45 261.818C1516.36 261.818 1509.09 260 1509.09 258.182C1509.09 256 1516.36 254.545 1525.45 254.545C1534.55 254.545 1541.82 256 1541.82 258.182Z"
         />
    <path
        d="M1977.09 37.8182C1952.73 44.3636 1934.55 60.3636 1921.82 85.4545C1911.27 106.909 1910.91 108.364 1909.45 173.818C1908.73 227.273 1907.27 240 1903.27 240C1899.27 240 1898.18 246.182 1898.18 265.455V290.909H1909.09C1920 290.909 1920 291.273 1920 310.909V330.909H1943.64C1957.09 330.909 1967.27 332.364 1967.27 334.545C1967.27 336.364 1960 338.182 1950.91 338.182H1934.55V352V366.182L1969.82 368.364C1989.09 369.818 2024 369.818 2048 368.364L2090.91 366.182V341.091V316.364H2105.45H2120V272.727V229.091H2092.73H2065.45V270.909V312.727H2021.82H1978.18V272.727V232.727H1967.27C1960 232.727 1956.36 230.909 1956.36 227.273C1956.36 223.636 1960 221.818 1967.27 221.818H1978.18V188C1978.18 140.364 1983.27 109.455 1992.73 100.364C1998.55 94.5454 2004.73 92.7272 2020.36 92.7272C2037.82 92.7272 2041.82 94.1818 2049.45 102.909C2054.55 108.727 2058.91 119.636 2060.36 130.182L2062.55 148L2092.36 146.182C2108.36 145.455 2122.91 143.636 2124.36 142.182C2125.82 140.727 2125.82 131.273 2124 120.727L2121.09 101.818H2145.82C2165.82 101.818 2170.91 100.727 2170.91 96.3636C2170.91 92 2165.45 90.9091 2144.36 90.9091H2117.82L2113.45 78.5454C2107.27 61.4545 2087.64 45.0909 2064.73 38.1818C2042.18 31.6363 2001.09 31.2727 1977.09 37.8182ZM2110.18 97.0909C2105.45 97.8182 2098.18 97.8182 2093.82 97.0909C2089.09 96.3636 2092.73 95.6363 2101.82 95.6363C2110.91 95.6363 2114.55 96.3636 2110.18 97.0909Z"
         />
    <path
        d="M2296.36 39.2727C2243.27 57.4545 2229.09 93.4545 2229.09 209.455V261.818H2214.55C2201.45 261.818 2200 262.545 2200 270.909C2200 279.636 2201.09 280 2220 280H2240V298.182V316.364H2254.55H2269.09V338.182C2269.09 357.455 2269.82 360 2276.36 360C2280.36 360 2283.64 362.545 2283.64 365.455C2283.64 370.182 2292.36 370.909 2341.82 370.909C2391.27 370.909 2400 370.182 2400 365.455C2400 361.455 2404.36 360 2416.36 360H2432.73V338.182C2432.73 317.455 2433.09 316.364 2441.82 316.364H2450.91V254.545V192.727H2470.91C2488.36 192.727 2490.91 192 2490.91 185.455C2490.91 178.909 2488.36 178.182 2470.91 178.182H2450.91V160.727C2450.91 113.455 2437.09 72.7273 2415.27 54.5454C2389.45 33.4545 2334.18 26.1818 2296.36 39.2727ZM2365.82 99.2727C2374.91 107.273 2376 110.182 2377.82 145.818C2378.91 166.545 2379.64 208.727 2378.91 238.909L2377.82 294.545H2365.09C2354.18 294.545 2352.73 295.636 2352.73 303.636C2352.73 312.364 2352 312.727 2327.27 312.727H2301.82V252.727V192.727H2289.09C2280.36 192.727 2276.36 190.909 2276.36 187.273C2276.36 183.636 2280 181.818 2288.73 181.818H2300.73L2302.55 148C2303.64 129.455 2306.18 110.545 2308.73 106.182C2317.82 89.0909 2349.82 85.4545 2365.82 99.2727ZM2447.27 187.273C2447.27 190.909 2443.64 192.727 2436.36 192.727C2429.09 192.727 2425.45 190.909 2425.45 187.273C2425.45 183.636 2429.09 181.818 2436.36 181.818C2443.64 181.818 2447.27 183.636 2447.27 187.273ZM2258.18 270.909C2258.18 277.455 2256.36 280 2250.91 280C2245.45 280 2243.64 277.455 2243.64 270.909C2243.64 264.364 2245.45 261.818 2250.91 261.818C2256.36 261.818 2258.18 264.364 2258.18 270.909Z"
         />
    <path
        d="M2560 114.545C2560 164.727 2561.45 196.364 2563.64 196.364C2565.45 196.364 2567.64 212.727 2568 233.455L2569.09 270.909L2602.91 272C2648.36 273.455 2646.18 280 2600 280C2570.18 280 2563.64 278.909 2563.64 274.545C2563.64 270.545 2559.27 269.091 2547.27 269.091C2533.45 269.091 2530.91 270.182 2530.91 276.364C2530.91 282.545 2533.45 283.636 2545.45 283.636H2560V327.273V370.909H2600C2624.36 370.909 2640 369.455 2640 367.273C2640 365.091 2655.27 363.636 2678.18 363.636H2716.36V334.545V305.455H2750.91H2785.45V294.545V283.636H2818.18C2848.36 283.636 2850.91 283.273 2850.91 276.364C2850.91 269.455 2848.36 269.091 2818.18 269.091H2785.45V229.091C2785.45 197.818 2784.36 189.091 2780.36 189.091C2777.09 189.091 2774.91 180.364 2773.45 157.091C2768 85.4546 2748.36 51.2727 2704.73 38.1818C2690.91 34.1818 2668.73 32.7273 2622.91 32.7273H2560V114.545ZM2681.09 98.5455C2694.91 104.727 2702.18 123.636 2704.36 160C2705.45 178.182 2708 192.727 2709.45 192.727C2711.27 192.727 2712.73 208.364 2712.73 227.273V261.818H2698.18C2690.18 261.818 2683.64 263.273 2683.64 265.455C2683.64 267.636 2673.82 269.091 2661.82 269.091H2640V227.273C2640 192.364 2638.91 185.455 2634.55 185.455C2629.82 185.455 2629.09 177.818 2629.09 137.818V89.8182L2650.55 92C2662.18 93.4546 2676 96.3636 2681.09 98.5455ZM2781.82 276.364C2781.82 278.545 2763.64 280 2734.55 280C2705.45 280 2687.27 278.545 2687.27 276.364C2687.27 274.182 2705.45 272.727 2734.55 272.727C2763.64 272.727 2781.82 274.182 2781.82 276.364ZM2683.64 292.727C2683.64 301.455 2682.55 301.818 2661.82 301.818C2641.09 301.818 2640 301.455 2640 292.727C2640 284 2641.09 283.636 2661.82 283.636C2682.55 283.636 2683.64 284 2683.64 292.727Z"
         />
    <path
        d="M2897.09 35.2727C2895.64 36.3637 2894.55 74.1818 2894.55 118.909V200H2869.09C2854.55 200 2843.64 201.455 2843.64 203.636C2843.64 205.818 2854.55 207.273 2869.09 207.273H2894.55V226.909C2894.55 237.818 2896.36 248 2898.18 249.091C2900.36 250.545 2901.82 275.273 2901.82 311.273V370.909H2929.09C2944.73 370.909 2956.36 369.455 2956.36 367.273C2956.36 365.091 2975.64 363.636 3007.27 363.636H3058.18V343.636C3058.18 332.727 3060 323.636 3061.82 323.636C3064 323.636 3065.45 321.091 3065.45 318.182C3065.45 313.455 3058.18 312.727 3021.82 312.727H2978.18V302.182C2978.18 293.091 2976.36 291.273 2968.36 289.818L2958.18 288.364L2968.36 287.636L2978.18 287.273V252.727V218.182H3016C3037.09 218.182 3054.91 217.091 3055.64 215.273C3056.73 213.818 3056.73 201.818 3055.64 188L3053.45 163.636H3010.55H2967.27V127.273V90.9091H3016.36H3065.45V61.8182V32.7273H2982.55C2936.73 32.7273 2898.18 33.8182 2897.09 35.2727ZM2923.64 203.636C2923.64 205.455 2917.82 207.273 2910.91 207.273C2904 207.273 2898.18 205.455 2898.18 203.636C2898.18 201.455 2904 200 2910.91 200C2917.82 200 2923.64 201.455 2923.64 203.636Z"
         />
</svg>